# xmcd
#
# Track frame offsets:
#	150
#	11130
#	33267
#	50610
#	68835
#	84702
#	100890
#	115902
#	130407
#	141067
#	158145
#	174352
#	188710
#	203282
#	216905
#	232907
#	250327
#	265972
#	278677
#	290652
#
# Disc length: 4070 seconds
#
# Revision: 1
# Processed by: cddbd v1.5.2PL0 Copyright (c) Steve Scherf et al.
# Submitted via: EasyCDDAExtractor 7.0.3.1
#
DISCID=1f0fe414
DTITLE=HillBilly Rick - Australian Picks
DYEAR=1998
DGENRE=Country
TTITLE0=Look Whoose Boots (Dance Mix)
TTITLE1=City Train
TTITLE2=Wiped A Tear
TTITLE3=Funky Country Rock N Roll
TTITLE4=Boom Boom Boom
TTITLE5=No Surrender Romeo
TTITLE6=Outback Club
TTITLE7=Hittin That Highway
TTITLE8=A Bad Day's Fishin'
TTITLE9=Footloose
TTITLE10=Nude BootScootin' (Slow)
TTITLE11=My Way
TTITLE12=Little Black Dress
TTITLE13=Fiddler Man
TTITLE14=Big Green 38
TTITLE15=Early Hours
TTITLE16=Don't You Make My Brown Eyes Blue
TTITLE17=Yesterday's Voices
TTITLE18=Look Whoose Boots (Radio Mix)
TTITLE19=Nude BootScootin (Fast)
EXTD=
EXTT0=
EXTT1=
EXTT2=
EXTT3=
EXTT4=
EXTT5=
EXTT6=
EXTT7=
EXTT8=
EXTT9=
EXTT10=
EXTT11=
EXTT12=
EXTT13=
EXTT14=
EXTT15=
EXTT16=
EXTT17=
EXTT18=
EXTT19=
PLAYORDER=
